# xmcd CD database file
#
# Track frame offsets:
#	150
#	35550
#	55570
#	70854
#	96969
#	123090
#	145076
#	164404
#	191546
#	214812
#	236668
#	258146
#	281388
#
# Disc length: 4105 seconds
#
# Revision: 0
# Processed by: cddbd v1.4PL0 Copyright (c) Steve Scherf et al.
# Submitted via: CDex 1.50beta10
#
DISCID=b310070d
DTITLE=Johnny B. Moore - Rockin' In The Same Old Boat
DYEAR=2003
DGENRE=Blues
TTITLE0=Lonesome For A Dime
TTITLE1=Broke Man
TTITLE2=She Hit Me From The Blind Side
TTITLE3=Cut You A Loose
TTITLE4=Lookin' Good
TTITLE5=Crazy Over You
TTITLE6=Big Boss Man
TTITLE7=Rockin' In The Same Old Boat
TTITLE8=Matchbox Blues
TTITLE9=That's The Way Love Is
TTITLE10=I'm A King Bee
TTITLE11=Walkin' The Streets
TTITLE12=Baby Please Don't Go
EXTD=YEAR: 2003
EXTT0=
EXTT1=
EXTT2=
EXTT3=
EXTT4=
EXTT5=
EXTT6=
EXTT7=
EXTT8=
EXTT9=
EXTT10=
EXTT11=
EXTT12=
PLAYORDER=
